<?xml version="1.0" encoding="utf-8"?>
<!-- Svg Vector Icons : http://www.onlinewebfonts.com/icon -->
<!DOCTYPE svg PUBLIC "-//W3C//DTD SVG 1.1//EN" "http://www.w3.org/Graphics/SVG/1.1/DTD/svg11.dtd">
<svg version="1.1" xmlns="http://www.w3.org/2000/svg" xmlns:xlink="http://www.w3.org/1999/xlink" x="0px" y="0px" viewBox="0 0 1000 1000" enable-background="new 0 0 1000 1000" xml:space="preserve">
<metadata> Svg Vector Icons : http://www.onlinewebfonts.com/icon </metadata>
<g><g transform="translate(0.000000,63.000000) scale(0.100000,-0.100000)"><path d="M4900.8-497.4c-837.7-853.5-995.8-1074.8-853.5-1296.2c94.9-142.2,237.1-284.5,316.1-316.1c79-31.6,632.3,442.6,1232.9,1043.2C6528.8-118.1,6671.1,71.6,6481.4,277.1C6370.7,419.3,6196.9,530,6102.1,530C6007.2,530,5454,71.6,4900.8-497.4z"/><path d="M5627.9-1192.9L4537.3-2299.3l442.6-521.7c237.1-284.5,758.6-806.1,1138-1138l711.3-616.4l1122.2,1122.2l1138.1,1138.1L7983-1208.7C7382.4-608.1,6844.9-102.3,6797.5-102.3C6750.1-102.3,6228.5-592.3,5627.9-1192.9z"/><path d="M7998.9-3563.9c-932.6-948.4-1075-1138-885.3-1343.6c110.7-142.2,284.5-252.8,395.2-252.8c205.4,0,2133.9,1944.2,2133.9,2165.5c0,158.1-331.9,521.6-474.2,521.6C9121.1-2473.2,8583.6-2963.2,7998.9-3563.9z"/><path d="M2766.9-5397.4C1565.6-6488.1,506.6-7483.9,427.6-7626.1c-316.1-553.2,505.8-1391.1,1043.2-1059.1C1597.3-8622,2593-7531.3,3699.5-6282.5c1928.4,2165.4,1991.6,2276,1738.7,2560.6c-142.3,173.9-316.1,300.3-363.5,300.3C5027.2-3421.6,3984.1-4322.6,2766.9-5397.4z"/><path d="M5374.9-7926.4c0-189.7,316.1-237.1,1896.8-237.1s1896.8,47.4,1896.8,237.1c0,205.5-316.1,237.1-1896.8,237.1S5374.9-7721,5374.9-7926.4z"/><path d="M4900.8-8795.8V-9270h2370.9h2371v474.2v474.2h-2371H4900.8V-8795.8z"/></g></g>
</svg>